{"title":"Crimson Peak (2015) BRRIP 1080P NO CINAVIA","uid":13601156,"size":2440522612,"categoryP":"video","categoryS":"hd___movies","magnet":"?xt=urn:btih:65b9081dc01315140ddfcd24f03e5431ff98d8a1&amp;dn=Crimson+Peak+%282015%29+BRRIP+1080P+NO+CINAVIA&amp;tr=udp%3A%2F%2Ftracker.leechers-paradise.org%3A6969&amp;tr=udp%3A%2F%2Fzer0day.ch%3A1337&amp;tr=udp%3A%2F%2Fopen.demonii.com%3A1337&amp;tr=udp%3A%2F%2Ftracker.coppersurfer.tk%3A6969&amp;tr=udp%3A%2F%2Fexodus.desync.com%3A6969","seeders":0,"leechers":2,"uploader":"jmanwf","files":3,"time":1455863230,"description":"In the aftermath of a family tragedy, an aspiring author is torn between love for her childhood friend and the temptation of a mysterious outsider. Trying to escape the ghosts of her past, she is swept away to a house that breathes, bleeds - and remembers.\r\n\r\n\r\nVideo\r\nID : 1\r\nFormat : AVC\r\nFormat/Info : Advanced Video Codec\r\nFormat profile :   \r\nFormat settings, CABAC : Yes\r\nFormat settings, ReFrames : 4 frames\r\nCodec ID : avc1\r\nCodec ID/Info : Advanced Video Coding\r\nDuration : 1h 58mn\r\nBit rate : 2 500 Kbps\r\nWidth : 1 920 pixels\r\nHeight : 1 040 pixels\r\nDisplay aspect ratio : 1.85:1\r\nFrame rate mode : Constant\r\nFrame rate : 23.976 fps\r\nColor space : YUV\r\nChroma subsampling : 4:2:0\r\nBit depth : 8 bits\r\nScan type : Progressive\r\nBits/(Pixel*Frame) : 0.052\r\nStream size : 2.07 GiB (92%)\r\nWriting library : x264 core 148 r2597M e86f3a1\r\nEncoded date : UTC 2016-01-28 05:47:07\r\nTagged date : UTC 2016-01-28 05:47:07\r\n\r\nAudio\r\nID : 2\r\nFormat : AAC\r\nFormat/Info : Advanced Audio Codec\r\nFormat profile : LC\r\nCodec ID : 40\r\nDuration : 1h 58mn\r\nBit rate mode : Variable\r\nBit rate : 224 Kbps\r\nMaximum bit rate : 896 Kbps\r\nChannel(s) : 2 channels\r\nChannel(s)_Original : 6 channels\r\nChannel positions : Front: L C R, Side: L R, LFE\r\nSampling rate : 48.0 KHz\r\nCompression mode : Lossy\r\nStream size : 190 MiB (8%)\r\nLanguage : English\r\nEncoded date : UTC 2016-01-28 05:47:07\r\nTagged date : UTC 2016-01-28 05:47:07\r\n\r\n\r\n\r\n \nhttp://www.imdb.com/title/tt2554274/?ref_=ttmd_md_nm","torrent":{"xt":"urn:btih:65b9081dc01315140ddfcd24f03e5431ff98d8a1","amp;dn":"Crimson+Peak+%282015%29+BRRIP+1080P+NO+CINAVIA","amp;tr":["udp%3A%2F%2Ftracker.leechers-paradise.org%3A6969","udp%3A%2F%2Fzer0day.ch%3A1337","udp%3A%2F%2Fopen.demonii.com%3A1337","udp%3A%2F%2Ftracker.coppersurfer.tk%3A6969","udp%3A%2F%2Fexodus.desync.com%3A6969"],"infoHash":"65b9081dc01315140ddfcd24f03e5431ff98d8a1","infoHashBuffer":{"type":"Buffer","data":[101,185,8,29,192,19,21,20,13,223,205,36,240,62,84,49,255,152,216,161]},"announce":[],"urlList":[]}}